<svg id="Layer_1" enable-background="new 0 0 512 512" height="512" viewBox="0 0 512 512" width="512" xmlns="http://www.w3.org/2000/svg"><g><path d="m255.62 0c-55.675 0-100.808 45.133-100.808 100.808v.036 142.184c0 7.381 5.984 13.365 13.365 13.365h174.886c7.381 0 13.365-5.984 13.365-13.365 0-3.926 0-138.435 0-142.184v-.036c-.001-55.675-45.134-100.808-100.808-100.808z" fill="#7b6c79"/><path d="m195.994 243.028v-142.185-.036c0-48.618 34.418-89.194 80.217-98.7-6.648-1.379-13.534-2.107-20.591-2.107-55.674 0-100.808 45.133-100.808 100.808v.036 142.184c0 7.381 5.984 13.365 13.365 13.365h41.182c-7.381 0-13.365-5.984-13.365-13.365z" fill="#665e68"/><path d="m328.769 130.765-3.122 1.849v49.752l3.083 3.513c19.11 3.662 35.023-10.069 35.023-27.555-.001-17.472-15.893-31.192-34.984-27.559z" fill="#fed1a3"/><path d="m350.028 182.366v-48.089c-5.923-3.521-13.311-5.024-21.259-3.512l-3.122 1.849v49.752l3.083 3.513c7.966 1.526 15.37.023 21.304-3.507z" fill="#ffbc85"/><path d="m212.092 274.571v8.324l21.954 31.637-18.629 38.551 42.324 35.664 45.586-34.254-27.815-35.026 27.815-38.632-3.904-6.623c-1.42-1.368-2.287-3.266-2.293-5.326l-.019-24.948-4.346-1.478h-76.489l-1.422 1.889v24.492c-.001 2.815-1.245 4.571-2.762 5.73z" fill="#fed1a3"/><path d="m257.709 388.721v-146.261h-41.434l-1.422 1.889v24.492c0 2.815-1.244 4.571-2.761 5.73v8.324l21.954 31.637-18.629 38.551z" fill="#ffbc85"/><path d="m277.743 336.183-3.504-2.255h-37.243l-4.066 2.966-17.513 16.189 22.32 19.353 19.917 6.352 15.453-3.922 23.695-22.433z" fill="#eee1dd"/><path d="m323.989 117.133c-8.973-2.727-26.555-9.909-43.492-27.377-2.764-2.85-7.29-2.64-9.823.246-6.758 7.708-20.028 21.752-37.585 35.146v58.954c0 30.874 18.798 57.427 45.543 68.854 29.025-9.315 50.096-36.554 50.096-68.633v-60.795c.001-2.942-1.923-5.538-4.739-6.395z" fill="#ffe5c1"/><g><path d="m234.9 184.323v-60.573c-13.644 10.619-30.011 20.983-48.027 27.634-2.625.969-4.368 3.471-4.368 6.269v26.669c0 37.655 29.499 72.07 74.154 72.07 8.845 0 17.319-1.61 25.156-4.538-27.37-10.228-46.915-36.637-46.915-67.531z" fill="#fed1a3"/></g><g fill="#fff5f5"><path d="m212.092 274.571c-1.55 1.184-3.385 1.746-4.478 2.17v-.001c-.472.183-8.946 3.468-20.807 8.066l-4.301 10.708 9.303 29.103 21.428 29.875 6.348-2.06c5.759-3.404 10.16-7.578 13.499-11.895 8.888-11.49 8.72-27.591-.173-39.077z"/><path d="m326.114 285.186c-12.987-5.029-22.744-8.808-24.234-9.385-.939-.363-1.761-.918-2.459-1.59l-21.096 27.249c-8.893 11.486-9.06 27.587-.173 39.077 3.553 4.593 8.295 9.032 14.611 12.545l8.76-.65 15.195-16.483 12.011-45.843z"/></g><path d="m85.361 344.449 32.531 41.551v112.978l10.136 13.022h255.944l6.577-5.468v-125.683l34.34-40.521 1.843-9.635c-6.124-6.45-13.306-11.507-20.948-14.652-3.48-1.348-50.007-19.367-79.669-30.854-3.054 18.96-14.445 61.033-56.49 86.067-8.09 4.817-18.178 4.817-26.268 0-42.328-25.203-53.587-67.674-56.55-86.446-29.43 11.41-79.739 30.913-80.563 31.233-6.647 2.735-14.161 7.75-20.883 14.77v13.638z" fill="#7b6c79"/><path d="m106.244 316.04c-6.647 2.735-14.161 7.75-20.883 14.77v13.638l15.302 19.545c6.591-25.301 24.227-47.178 36.352-59.883-16.937 6.567-30.349 11.766-30.771 11.93z" fill="#665e68"/><path d="m128.028 396.345c0-16.474-6.846-32.207-18.901-43.436l-23.766-22.138c-10.678 11.14-19.358 27.353-19.358 47.635v120.192c0 7.401 6 13.401 13.402 13.401h48.624v-115.654z" fill="#938493"/><path d="m66.002 378.406v120.192c0 7.401 6 13.402 13.402 13.402h18.641c0-42.378 0-99.659 0-128.404 0-11.874 3.023-23.353 7.596-33.934l-20.28-18.891c-10.678 11.141-19.359 27.354-19.359 47.635z" fill="#7b6c79"/><path d="m383.972 396.345v115.655h48.624c7.402 0 13.402-6 13.402-13.401 0-11.073 0-107.155 0-120.192 0-18.567-7.76-35.606-19.263-47.723l-23.861 22.226c-12.056 11.227-18.902 26.961-18.902 43.435z" fill="#938493"/></g></svg>